<?xml version="1.0" encoding="UTF-8"?>
<svg version="1.1" xmlns="http://www.w3.org/2000/svg" width="1100" height="1100">
<path d="M0 0 C2.08400599 -0.00302607 4.16801086 -0.00691782 6.2520138 -0.01159257 C11.9389273 -0.02182245 17.6257774 -0.0197036 23.31269598 -0.01541197 C29.46142592 -0.01293563 35.61014095 -0.02197011 41.75886536 -0.02944946 C53.78910706 -0.04217292 65.81932116 -0.04399889 77.84956644 -0.0416492 C87.63116509 -0.03981229 97.41275719 -0.04158447 107.19435501 -0.04587364 C108.60263034 -0.04647606 110.01090567 -0.04707726 111.419181 -0.04767724 C113.54163802 -0.04858455 115.66409504 -0.04949323 117.78655205 -0.0504096 C137.50378614 -0.05883149 157.22101777 -0.06318005 176.9382534 -0.05900288 C178.05175477 -0.05876831 178.05175477 -0.05876831 179.18775111 -0.05852901 C182.94969195 -0.0577233 186.71163278 -0.05687752 190.47357361 -0.05601571 C191.22062915 -0.05584462 191.96768469 -0.05567353 192.73737828 -0.05549726 C194.248103 -0.0551506 195.75882771 -0.05480207 197.26955243 -0.05445167 C220.77538906 -0.04909473 244.28118818 -0.05702727 267.78701782 -0.07548523 C294.23161315 -0.09622683 320.67618525 -0.10692393 347.12078917 -0.10290974 C349.94339664 -0.10251443 352.76600412 -0.10215288 355.5886116 -0.10181236 C356.28354498 -0.10172163 356.97847835 -0.1016309 357.69447031 -0.10153742 C368.15874376 -0.10037426 378.62299364 -0.10699816 389.0872612 -0.11762428 C400.99493351 -0.12970424 412.90255235 -0.13092614 424.81023 -0.11883412 C430.88030575 -0.11295621 436.95028055 -0.11181597 443.0203495 -0.12383652 C448.58678958 -0.13473127 454.15304486 -0.13154935 459.71947642 -0.11757483 C461.72334276 -0.11493781 463.72722377 -0.11726283 465.73107569 -0.1253107 C481.59892497 -0.18456977 496.9115055 1.20834327 512.15029907 5.94819641 C512.9781189 6.20310852 513.80593872 6.45802063 514.65884399 6.72065735 C534.4208917 13.07457416 551.4690507 24.62699544 566.02529907 39.26069641 C566.92119751 40.15659485 567.81709595 41.05249329 568.74014282 41.97554016 C593.42918668 67.88191746 605.23360646 105.9436235 605.15811157 141.19429016 C605.1590683 142.19404373 605.16002502 143.1937973 605.16101074 144.22384644 C605.16168623 146.31710372 605.15987641 148.41036317 605.15567017 150.50361633 C605.150273 153.7137058 605.15565686 156.92365788 605.16201782 160.13374329 C605.1613577 162.17475922 605.16007792 164.21577507 605.15811157 166.25679016 C605.1601358 167.21612961 605.16216003 168.17546906 605.16424561 169.16387939 C605.16109344 170.05233047 605.15794128 170.94078156 605.1546936 171.8561554 C605.15350021 173.02669716 605.15350021 173.02669716 605.15228271 174.22088623 C605.02529907 176.26069641 605.02529907 176.26069641 604.02529907 179.26069641 C598.9333472 180.29555864 594.0760297 180.39093759 588.90811157 180.35835266 C588.14748413 180.35734558 587.38685669 180.3563385 586.60317993 180.3553009 C583.78553745 180.35010334 580.96791661 180.33614228 578.15029907 180.32319641 C568.68342407 180.29225891 568.68342407 180.29225891 559.02529907 180.26069641 C559.02529907 195.11069641 559.02529907 209.96069641 559.02529907 225.26069641 C573.78972469 225.55006827 573.78972469 225.55006827 588.55435181 225.82881165 C590.39754019 225.8669172 592.24072114 225.90538483 594.08389282 225.94429016 C595.05040771 225.96076599 596.01692261 225.97724182 597.01272583 225.99421692 C597.92622803 226.0143988 598.83973022 226.03458069 599.78091431 226.05537415 C600.57811386 226.07091843 601.37531342 226.08646271 602.19667053 226.10247803 C604.02529907 226.26069641 604.02529907 226.26069641 605.02529907 227.26069641 C605.14727715 228.641205 605.20298806 230.02767288 605.23062134 231.4132843 C605.25056656 232.29412186 605.27051178 233.17495941 605.2910614 234.08248901 C605.3077739 235.03977402 605.32448639 235.99705902 605.34170532 236.98335266 C605.36248642 237.95856369 605.38326752 238.93377472 605.40467834 239.9385376 C605.4702832 243.06668271 605.52910935 246.19491464 605.58779907 249.32319641 C605.63097391 251.43843992 605.67458785 253.55367451 605.71865845 255.66889954 C605.82597562 260.86607228 605.92772128 266.06333218 606.02529907 271.26069641 C608.22820692 271.43020907 610.43138759 271.59617826 612.63467407 271.76069641 C613.86153931 271.85350891 615.08840454 271.94632141 616.35244751 272.04194641 C619.67406413 272.23977734 622.94921716 272.29902187 626.27529907 272.26069641 C631.79092295 272.21291254 637.26909162 272.40736795 642.77529907 272.69819641 C643.9746106 272.75717102 643.9746106 272.75717102 645.19815063 272.81733704 C650.90402556 273.1394229 650.90402556 273.1394229 652.02529907 274.26069641 C652.12334758 275.66744861 652.15328094 277.07904777 652.1546936 278.48921204 C652.15942184 279.83565796 652.15942184 279.83565796 652.16424561 281.20930481 C652.16222137 282.18532654 652.16019714 283.16134827 652.15811157 284.16694641 C652.1590683 285.16198181 652.16002502 286.15701721 652.16101074 287.1822052 C652.16169267 289.29056359 652.15983751 291.39892406 652.15567017 293.50727844 C652.1503221 296.74674668 652.15561475 299.98607627 652.16201782 303.22554016 C652.16135704 305.26850922 652.16007589 307.31147819 652.15811157 309.35444641 C652.1601358 310.33046814 652.16216003 311.30648987 652.16424561 312.31208801 C652.16109344 313.20971863 652.15794128 314.10734924 652.1546936 315.03218079 C652.15350021 316.22345581 652.15350021 316.22345581 652.15228271 317.438797 C652.02529907 319.26069641 652.02529907 319.26069641 651.02529907 320.26069641 C640.37819546 321.57654517 629.59263416 321.4086601 618.88467407 321.39350891 C617.1831155 321.39418425 615.48155702 321.39515618 613.77999878 321.39640808 C610.24700993 321.39786943 606.71404664 321.39577813 603.18106079 321.3910675 C598.64830413 321.38531827 594.11560602 321.38869151 589.58285141 321.39463997 C586.08453932 321.39824335 582.58624127 321.39710894 579.08792877 321.39451218 C577.41492964 321.393845 575.74192923 321.39466405 574.06893158 321.39699173 C571.74543326 321.39952022 569.42203229 321.3956773 567.09854126 321.39009094 C566.40771957 321.39211517 565.71689789 321.3941394 565.00514221 321.39622498 C560.25385094 321.37497234 560.25385094 321.37497234 558.02529907 320.26069641 C557.69529907 305.08069641 557.36529907 289.90069641 557.02529907 274.26069641 C547.08082642 274.1698175 547.08082642 274.1698175 536.93545532 274.07710266 C532.74729742 274.03663037 528.5591464 273.99586843 524.3710022 273.95405579 C517.71648427 273.88764774 511.06196779 273.82234004 504.40737915 273.76338196 C499.04517817 273.71580726 493.68304335 273.66346723 488.32092094 273.60775566 C486.27031529 273.58730076 484.21969148 273.56859299 482.16905403 273.55162239 C479.30734787 273.52764753 476.445768 273.49758391 473.58413696 273.46601868 C472.72746429 273.46026321 471.87079163 273.45450775 470.98815918 273.44857788 C465.13935123 273.37474857 465.13935123 273.37474857 464.02529907 272.26069641 C464.02529907 257.41069641 464.02529907 242.56069641 464.02529907 227.26069641 C433.33529907 227.26069641 402.64529907 227.26069641 371.02529907 227.26069641 C369.70896601 219.36269803 370.02529907 211.26763784 370.02529907 203.26069641 C339.66529907 203.59069641 309.30529907 203.92069641 278.02529907 204.26069641 C278.02529907 257.39069641 278.02529907 310.52069641 278.02529907 365.26069641 C313.30758423 365.35157532 313.30758423 365.35157532 349.30264282 365.44429016 C364.15485811 365.48475858 379.00707213 365.52547137 393.85928345 365.56733704 C401.65705342 365.58930457 409.45482356 365.61120978 417.25259399 365.63301086 C418.22998305 365.63574605 419.20737211 365.63848124 420.21437901 365.64129931 C436.01514916 365.68542622 451.81592652 365.72603208 467.61670928 365.76534902 C483.81997298 365.80574539 500.02322326 365.84989862 516.22646719 365.89757496 C526.23313811 365.92689905 536.23980797 365.95325601 546.24649633 365.97587539 C553.09872565 365.99164442 559.95093853 366.01104657 566.80314963 366.03336482 C570.76266872 366.04615219 574.72217507 366.05728117 578.68170929 366.06411552 C582.30059458 366.07039706 585.91943605 366.08119982 589.53829736 366.09572972 C591.48011723 366.1023129 593.4219519 366.10394119 595.36378235 366.10544199 C596.50136035 366.11091643 597.63893836 366.11639088 598.81098843 366.12203121 C600.29588478 366.12601828 600.29588478 366.12601828 601.81077904 366.13008589 C604.02529907 366.26069641 604.02529907 366.26069641 605.02529907 367.26069641 C605.12592844 369.71850858 605.16076727 372.14830636 605.15393353 374.6067152 C605.15568656 375.38876846 605.1574396 376.17082172 605.15924576 376.97657356 C605.16394543 379.63104665 605.16143013 382.28546591 605.15901184 384.93994141 C605.16087786 386.84885939 605.16317771 388.757777 605.16587716 390.66669399 C605.17202815 395.93914219 605.1718577 401.21157462 605.17068279 406.4840256 C605.17047959 412.16054127 605.17598994 417.83705177 605.18074036 423.51356506 C605.18906698 434.64814918 605.19179616 445.782728 605.19235273 456.91731497 C605.19282722 465.96989992 605.1948786 475.02248312 605.19805336 484.07506752 C605.20543184 505.55100231 605.21157752 527.02693537 605.2110548 548.50287151 C605.21103922 549.19038246 605.21102364 549.8778934 605.21100759 550.58623801 C605.21092448 554.07097113 605.21082544 557.55570425 605.21072289 561.04043736 C605.21069297 562.07858413 605.21069297 562.07858413 605.21066245 563.13770355 C605.21062201 564.53729942 605.21058021 565.93689529 605.21053705 567.33649115 C605.20992498 589.0876815 605.21741655 610.83885623 605.23110962 632.59004211 C605.24648349 657.02129818 605.25506228 681.45254219 605.2541464 705.88380367 C605.25381446 718.82085524 605.25655989 731.75788922 605.26732445 744.69493675 C605.2764362 755.71668005 605.27859936 766.7383978 605.27181502 777.76014324 C605.26855242 783.3820172 605.26848366 789.00384216 605.27716827 794.62571144 C605.28504629 799.7786283 605.28358848 804.93145739 605.27488414 810.08437214 C605.27335195 811.9425875 605.27515466 813.80080946 605.28074422 815.65901705 C605.32026891 829.73826051 604.60837826 843.12909152 599.96279907 856.57319641 C599.65825806 857.462005 599.35371704 858.3508136 599.03994751 859.26655579 C593.82902427 873.91998616 586.63877391 885.93553084 576.02529907 897.26069641 C575.2853772 898.08054016 574.54545532 898.90038391 573.78311157 899.74507141 C558.30648835 916.1854404 533.33488664 928.65301025 510.71476245 930.44359612 C508.39900867 930.509198 506.09102304 930.51816527 503.77441406 930.50120544 C502.90015671 930.50291429 502.02589936 930.50462314 501.12514937 930.50638378 C498.22638259 930.50965047 495.32785274 930.49872193 492.42910767 930.48774719 C490.33898931 930.48718247 488.24887056 930.48750083 486.15875244 930.4886322 C480.50659724 930.48920432 474.8545275 930.47747278 469.2023921 930.46348429 C463.28737799 930.45095346 457.37236176 930.44980457 451.45733643 930.44743347 C440.26620496 930.44122561 429.07511273 930.42482418 417.88399851 930.40473449 C405.13915363 930.38235389 392.39430685 930.37137662 379.6494472 930.36134362 C353.4413761 930.34045735 327.23333979 930.30529487 301.02529907 930.26069641 C299.37756006 926.96521838 299.89634182 923.30162477 299.91177368 919.68013 C299.91162766 918.79226303 299.91148163 917.90439606 299.91133118 916.98962402 C299.91202952 914.04610272 299.91981826 911.1026442 299.92764282 908.15913391 C299.92950728 906.12175023 299.93093105 904.0843661 299.93193054 902.04698181 C299.93575353 896.67771676 299.94558196 891.30847864 299.95663452 885.93922424 C299.96685334 880.46305201 299.97142917 874.98687543 299.97647095 869.51069641 C299.98720441 858.76068456 300.00427822 848.01069272 300.02529907 837.26069641 C305.16616257 835.56814988 309.76869527 834.97451522 315.19169617 835.00914001 C315.9856529 835.00616988 316.77960964 835.00319974 317.59762567 835.00013959 C320.24294367 834.99253557 322.88803727 834.9989787 325.53335571 835.00532532 C327.43596039 835.0025738 329.33856391 834.99889292 331.24116516 834.99435425 C335.33080155 834.98625604 339.42038331 834.98407028 343.51002693 834.98630142 C349.97703126 834.9891379 356.44392666 834.97477093 362.91090393 834.95732117 C381.29773332 834.9103233 399.68455485 834.88634665 418.07144165 834.87983704 C428.23204239 834.87608802 438.39251943 834.8580742 448.55306715 834.82474267 C454.98172836 834.80451649 461.41007086 834.80216401 467.83875096 834.81302285 C471.83685424 834.81562831 475.83477152 834.80163455 479.83282661 834.78294182 C481.68635887 834.77761585 483.5399253 834.77912353 485.39344406 834.78797722 C487.92470328 834.79909311 490.45470331 834.78567399 492.98588562 834.76622009 C494.08477374 834.77990708 494.08477374 834.77990708 495.20586163 834.79387057 C500.26289416 834.71828836 503.12670547 833.43332881 507.02529907 830.26069641 C510.61725174 825.30627894 511.15044574 821.18133894 511.1483469 815.16186905 C511.15033795 813.90336584 511.152329 812.64486264 511.15438038 811.34822297 C511.15152733 809.9490318 511.14858173 808.54984082 511.14555359 807.15065002 C511.14598954 805.66639429 511.14686488 804.18213862 511.14814276 802.69788337 C511.15038307 798.61374596 511.14637273 794.52963469 511.14136469 790.44550061 C511.13705376 786.04334847 511.13850708 781.64119785 511.13926697 777.23904419 C511.13979179 769.61017252 511.1366493 761.9813094 511.13102913 754.35243988 C511.12290855 743.32232012 511.12029833 732.2922045 511.11904114 721.26208207 C511.1168515 703.36724935 511.11019379 685.47242119 511.10073853 667.57759094 C511.09156214 650.19250002 511.08449387 632.80741035 511.08023071 615.4223175 C511.07996272 614.34010591 511.07969472 613.25789431 511.0794186 612.14288843 C511.07733923 603.6795184 511.07538228 595.21614835 511.07346404 586.75277829 C511.06402717 545.25541349 511.04390961 503.75806008 511.02529907 462.26069641 C434.13529907 462.26069641 357.24529907 462.26069641 278.02529907 462.26069641 C278.0485022 499.46561829 278.07170532 536.67054016 278.09561157 575.00288391 C278.10521627 597.11491201 278.11468499 619.22693849 278.121629 641.33896732 C278.1257114 654.30591076 278.12988724 667.27285416 278.13435106 680.23979747 C278.13489074 681.80824212 278.13542748 683.37668677 278.13596125 684.94513142 C278.14449431 709.94748623 278.15950141 734.94983199 278.17789351 759.95218133 C278.1967625 785.64949042 278.20907084 811.34679451 278.21312905 837.04411041 C278.21370536 840.67401577 278.21435663 844.30392111 278.21505356 847.93382645 C278.21525583 849.0054483 278.21525583 849.0054483 278.21546218 850.09871908 C278.21782524 861.59692757 278.22710035 873.09512058 278.23896314 884.59332276 C278.25074281 896.15404156 278.25507186 907.714739 278.25230183 919.2754647 C278.25101906 925.5388455 278.25300518 931.8021809 278.26371002 938.06555367 C278.27343929 943.79994488 278.27393601 949.53426013 278.26709686 955.26865484 C278.26625152 957.34284479 278.26879127 959.41703947 278.27506544 961.4912201 C278.28310425 964.31291839 278.27875722 967.1343433 278.27139473 969.95603752 C278.27927577 971.16080221 278.27927577 971.16080221 278.28731602 972.38990557 C278.23946484 980.51896322 277.58821307 988.96582005 272.02529907 995.26069641 C265.94260017 1000.36668502 260.51319076 1000.99785417 252.76358032 1000.96772766 C251.69592941 1000.98284897 250.6282785 1000.99797028 249.52827454 1001.0135498 C246.13123477 1001.05627567 242.7350798 1001.06523007 239.33779907 1001.07319641 C237.07540545 1001.09636638 234.81303323 1001.12173686 232.5506897 1001.14936829 C227.26908117 1001.20857567 221.98799135 1001.23768533 216.70608521 1001.25099182 C214.37637273 1001.25942551 212.04724298 1001.27859213 209.71768188 1001.30513 C208.57267212 1001.31495911 207.42766235 1001.32478821 206.24795532 1001.33491516 C205.3263562 1001.34482483 204.40475708 1001.3547345 203.45523071 1001.36494446 C196.93177838 1001.08507767 192.53792565 999.22728512 188.08779907 994.44819641 C183.15146525 988.60161664 182.72990126 982.54221296 182.74682617 975.21485901 C182.74103359 974.30994553 182.73524101 973.40503206 182.7292729 972.47269696 C182.71224847 969.43096538 182.70939015 966.38938591 182.70645142 963.34761047 C182.69713899 961.14938018 182.68697088 958.95115338 182.67601871 956.75293064 C182.64848946 950.70687304 182.63346269 944.66083913 182.62059474 938.61473489 C182.60471862 932.10287264 182.57779061 925.5910545 182.55241394 919.07922363 C182.50703207 907.06969432 182.47193055 895.06015464 182.44127398 883.05057956 C182.41295905 871.96802506 182.38025374 860.88549357 182.34368896 849.80296326 C182.12100625 782.01438662 181.99541373 714.22583297 181.96760646 646.43689534 C181.96648078 643.69402803 181.96530205 640.95116074 181.96412186 638.20829345 C181.94069856 579.22574762 181.99251278 520.24323612 182.02529907 461.26069641 C105.46529907 461.59069641 28.90529907 461.92069641 -49.97470093 462.26069641 C-50.0620833 526.2763155 -50.0620833 526.2763155 -50.1211853 590.29194641 C-50.1270591 598.91694658 -50.13312059 607.54194659 -50.13949585 616.16694641 C-50.1402871 617.24797945 -50.14107834 618.32901248 -50.14189357 619.4428041 C-50.15494858 636.90506241 -50.17860395 654.36729116 -50.20615932 671.82953192 C-50.23419416 689.74477565 -50.25087312 707.66000387 -50.25696641 725.57526863 C-50.26108684 736.6337661 -50.27411022 747.69218001 -50.29845033 758.75065176 C-50.3142838 766.32943809 -50.31910671 773.9081811 -50.31520506 781.48698278 C-50.31327979 785.86235916 -50.31627244 790.23758932 -50.33231735 794.61293983 C-50.34689609 798.61764684 -50.34766654 802.62210904 -50.33739761 806.62682723 C-50.33612809 808.07645824 -50.33995088 809.52610442 -50.34935047 810.97570552 C-50.36138029 812.94528068 -50.35311191 814.91494855 -50.34384441 816.88453865 C-50.34498357 817.97889264 -50.34612274 819.07324663 -50.34729642 820.20076287 C-49.68742356 825.61995648 -47.2261011 829.86388805 -42.97470093 833.26069641 C-33.51391126 836.54698955 -22.2956771 835.52356696 -12.40219116 835.47187805 C-10.55309634 835.46967293 -8.70400025 835.46837053 -6.85490417 835.46789551 C-2.89683419 835.46497844 1.06115202 835.45578805 5.01919746 835.44159126 C11.27570099 835.41921701 17.53217403 835.41121806 23.78871155 835.40509033 C33.67644148 835.39374234 43.56412542 835.37303411 53.45182985 835.34819263 C71.18549468 835.30372646 88.91917624 835.27069527 106.65288204 835.24794859 C112.87573952 835.23953417 119.09855211 835.22550406 125.32138741 835.20697606 C129.18159675 835.19635609 133.04180564 835.18975804 136.90202522 835.18417549 C138.69555588 835.18069705 140.48908411 835.17547439 142.28260422 835.16840744 C144.72444552 835.15899481 147.166221 835.15568459 149.608078 835.15390015 C150.32265232 835.14962307 151.03722664 835.14534598 151.77345473 835.1409393 C154.81102436 835.14446124 157.11750186 835.29143067 160.02529907 836.26069641 C160.04843229 848.22146126 160.06621918 860.18222083 160.07711124 872.14300346 C160.08233792 877.69640262 160.08943168 883.24978651 160.10073853 888.80317688 C160.11157502 894.15885189 160.11757754 899.51451218 160.12017632 904.8701973 C160.12202918 906.91720435 160.12564716 908.96421057 160.13102913 911.0112114 C160.13824964 913.87026992 160.13928958 916.72926701 160.13882446 919.58833313 C160.14241974 920.44141052 160.14601501 921.29448792 160.14971924 922.17341614 C160.13935123 928.03259209 160.13935123 928.03259209 159.02529907 930.26069641 C131.92105036 930.33090817 104.81681537 930.3837441 77.7124939 930.41613293 C65.1263016 930.43157415 52.54016594 930.45261103 39.95401001 930.48701477 C28.97855146 930.51700133 18.00313395 930.53629135 7.02763557 930.5429619 C1.22107992 930.5468585 -4.58535835 930.55595848 -10.39187622 930.57788658 C-15.86818574 930.59839817 -21.34433061 930.60450081 -26.8206749 930.60001945 C-28.81998467 930.60083814 -30.81930051 930.60671566 -32.81857681 930.61831284 C-48.58334719 930.70519775 -63.22394484 929.67229336 -77.78720093 923.01069641 C-78.68027954 922.61374573 -79.57335815 922.21679504 -80.49349976 921.80781555 C-91.13653083 916.97607555 -99.99718167 910.6908958 -108.97470093 903.26069641 C-110.22380249 902.3035675 -110.22380249 902.3035675 -111.49813843 901.32710266 C-125.67265171 889.50010341 -135.41893411 870.19250861 -140.72470093 852.88569641 C-140.92353882 852.25107483 -141.12237671 851.61645325 -141.32723999 850.96260071 C-145.19520031 837.54250339 -145.26390723 823.76045114 -145.22193909 809.92430115 C-145.22353036 808.00640935 -145.22599711 806.08851812 -145.2292555 804.17062843 C-145.23562643 798.93889444 -145.22963418 793.70723868 -145.22149122 788.47550988 C-145.21488134 782.81925742 -145.21986965 777.16301324 -145.22337341 771.50675964 C-145.22840126 760.44528949 -145.22279265 749.38384936 -145.21352311 738.32238294 C-145.20312039 725.44478801 -145.20320975 712.56719951 -145.20369569 699.68960117 C-145.20421077 676.03199815 -145.19418994 652.37441315 -145.17919325 628.71681588 C-145.16554792 607.1111605 -145.15933299 585.50551621 -145.16000366 563.89985657 C-145.16004407 562.51047707 -145.16008443 561.12109757 -145.16012474 559.73171808 C-145.16014509 559.04483636 -145.16016544 558.35795464 -145.16018641 557.65025833 C-145.1602872 554.19270724 -145.16037779 550.73515615 -145.16045666 547.27760506 C-145.16047337 546.59550119 -145.16049008 545.91339733 -145.1605073 545.21062365 C-145.16095027 523.2816357 -145.15383625 501.35264997 -145.14609381 479.42366353 C-145.14307264 470.43859682 -145.14201371 461.45353106 -145.14156151 452.4684639 C-145.14088113 441.53599051 -145.13644054 430.60352593 -145.1272287 419.67105629 C-145.12259648 414.08919059 -145.11957046 408.5073362 -145.12082291 402.92546844 C-145.12191192 397.82500543 -145.11843685 392.72456751 -145.11117438 387.62410973 C-145.10935 385.77058305 -145.10924137 383.9170538 -145.11094167 382.063527 C-145.11298437 379.56134412 -145.10898296 377.05924529 -145.10333538 374.55706978 C-145.10641836 373.45563048 -145.10641836 373.45563048 -145.10956362 372.33193988 C-145.08885607 367.37485155 -145.08885607 367.37485155 -143.97470093 366.26069641 C-142.23899913 366.15832618 -140.49910205 366.12669979 -138.76039028 366.12203121 C-137.62281228 366.11655677 -136.48523427 366.11108232 -135.3131842 366.10544199 C-134.0476479 366.10446388 -132.7821116 366.10348577 -131.47822571 366.10247803 C-130.13267622 366.09791633 -128.78712816 366.09291689 -127.44158179 366.08751446 C-123.72693119 366.07387925 -120.01228979 366.06649951 -116.29762065 366.0600878 C-112.29827151 366.05210738 -108.29894164 366.03840155 -104.29960632 366.02537537 C-97.36477701 366.00357902 -90.42994577 365.98544614 -83.49510002 365.96977043 C-73.4683596 365.94710048 -63.4416405 365.91895373 -53.41491813 365.88945115 C-37.14896646 365.8417399 -20.88300608 365.79848533 -4.61703491 365.75801086 C11.18798501 365.71867389 26.99299714 365.67724058 42.79800415 365.63301086 C43.78144214 365.63026136 44.76488013 365.62751185 45.77811927 365.62467903 C53.46874438 365.60316108 61.15936916 365.58152117 68.84999382 365.55984271 C106.57507991 365.45353385 144.3001862 365.35786747 182.02529907 365.26069641 C182.02529907 311.80069641 182.02529907 258.34069641 182.02529907 203.26069641 C151.66529907 203.26069641 121.30529907 203.26069641 90.02529907 203.26069641 C90.02529907 210.19069641 90.02529907 217.12069641 90.02529907 224.26069641 C89.69529907 225.25069641 89.36529907 226.24069641 89.02529907 227.26069641 C58.33529907 227.26069641 27.64529907 227.26069641 -3.97470093 227.26069641 C-3.97470093 242.11069641 -3.97470093 256.96069641 -3.97470093 272.26069641 C-6.07578653 274.36178202 -10.72183718 273.44672246 -13.62533569 273.46601868 C-14.53256378 273.47591827 -15.43979187 273.48581787 -16.37451172 273.49601746 C-19.38834987 273.52773236 -22.40220381 273.55242919 -25.41610718 273.57710266 C-27.49976523 273.59766357 -29.58341904 273.6186598 -31.66706848 273.64007568 C-37.16288824 273.6953855 -42.65874619 273.74475535 -48.15463257 273.79292297 C-54.742543 273.8518837 -61.33038333 273.91816048 -67.91823578 273.98322296 C-77.93701484 274.08134451 -87.95583795 274.17012389 -97.97470093 274.26069641 C-97.97470093 289.44069641 -97.97470093 304.62069641 -97.97470093 320.26069641 C-102.14288802 321.30274319 -105.91403745 321.40121431 -110.1680603 321.39009094 C-111.40287895 321.39271942 -111.40287895 321.39271942 -112.66264343 321.395401 C-115.38126743 321.39979887 -118.09982627 321.39688877 -120.81845093 321.39350891 C-122.7088726 321.39418254 -124.5992942 321.39515307 -126.48971558 321.39640808 C-130.45070216 321.39788225 -134.41166619 321.39573948 -138.37265015 321.3910675 C-143.45030259 321.38537039 -148.52790217 321.38865089 -153.60555267 321.39463997 C-157.50886432 321.39825313 -161.41216344 321.39710351 -165.31547546 321.39451218 C-167.18777981 321.393845 -169.06008529 321.39466403 -170.93238831 321.39699173 C-173.54873673 321.39953059 -176.1649995 321.39566018 -178.78134155 321.39009094 C-179.94256279 321.39312729 -179.94256279 321.39312729 -181.12724304 321.39622498 C-184.54610682 321.38274014 -187.70758595 321.34082247 -190.97470093 320.26069641 C-192.06720836 309.91320419 -191.92123567 299.82520885 -191.53720093 289.44819641 C-191.35157593 284.10632141 -191.16595093 278.76444641 -190.97470093 273.26069641 C-168.20470093 272.76569641 -168.20470093 272.76569641 -144.97470093 272.26069641 C-145.01430799 257.4961519 -145.01430799 257.4961519 -145.06478882 242.73164368 C-145.06770786 240.88846392 -145.07025645 239.04528353 -145.07235718 237.20210266 C-145.07747314 236.23558777 -145.08258911 235.26907288 -145.08786011 234.27326965 C-145.08804138 232.90301636 -145.08804138 232.90301636 -145.08822632 231.50508118 C-145.09044693 230.70788162 -145.09266754 229.91068207 -145.09495544 229.08932495 C-144.97470093 227.26069641 -144.97470093 227.26069641 -143.97470093 226.26069641 C-142.59419234 226.13871833 -141.20772446 226.08300742 -139.82211304 226.05537415 C-138.92891357 226.03519226 -138.03571411 226.01501038 -137.115448 225.99421692 C-136.1705249 225.97774109 -135.22560181 225.96126526 -134.25204468 225.94429016 C-133.38809082 225.92563904 -132.52413696 225.90698792 -131.63400269 225.88777161 C-128.39351034 225.81925356 -125.15284258 225.75924586 -121.91220093 225.69819641 C-111.05313843 225.48163391 -111.05313843 225.48163391 -99.97470093 225.26069641 C-99.64470093 210.41069641 -99.31470093 195.56069641 -98.97470093 180.26069641 C-113.03599936 180.30028186 -113.03599936 180.30028186 -127.09725952 180.3507843 C-128.85588521 180.35370403 -130.61451157 180.35625246 -132.37313843 180.35835266 C-133.29135376 180.36346863 -134.20956909 180.36858459 -135.15560913 180.37385559 C-136.02838501 180.37397644 -136.90116089 180.37409729 -137.80038452 180.3742218 C-138.55983368 180.37644241 -139.31928284 180.37866302 -140.10174561 180.38095093 C-141.97470093 180.26069641 -141.97470093 180.26069641 -143.97470093 179.26069641 C-149.63015397 150.41788588 -145.25151404 112.68477634 -134.97470093 85.26069641 C-134.73944702 84.62293274 -134.50419312 83.98516907 -134.2618103 83.32807922 C-128.73012182 68.63772446 -119.99336487 55.77182471 -109.97470093 43.76069641 C-109.53029663 43.22678284 -109.08589233 42.69286926 -108.62802124 42.14277649 C-106.31374268 39.4709251 -104.29306783 37.55117243 -100.97470093 36.26069641 C-100.97470093 35.60069641 -100.97470093 34.94069641 -100.97470093 34.26069641 C-86.32738686 20.12155446 -67.37529612 10.31446627 -47.91220093 4.88569641 C-47.06335327 4.64697815 -46.21450562 4.40825989 -45.3399353 4.16230774 C-30.36685019 0.25659261 -15.36225563 -0.03188959 0 0 Z M156.02529907 44.26069641 C154.57728315 46.42420202 154.57728315 46.42420202 153.71670532 48.74507141 C153.36535522 49.59021301 153.01400513 50.43535461 152.65200806 51.30610657 C152.12522461 52.64487854 152.12522461 52.64487854 151.58779907 54.01069641 C151.21018433 54.9328595 150.83256958 55.85502258 150.44351196 56.80513 C149.67015633 58.69678425 148.90345971 60.59117461 148.14346313 62.48823547 C147.08632747 65.10937798 145.99757133 67.71415265 144.89248657 70.31538391 C144.24899118 71.83870898 143.60574769 73.36214049 142.96279907 74.88569641 C142.51432617 75.9409552 142.51432617 75.9409552 142.05679321 77.01753235 C140.84782586 79.933511 140.02529907 82.07010928 140.02529907 85.26069641 C139.23330014 85.25977462 138.44130121 85.25885283 137.62530231 85.2579031 C118.30994886 85.2357709 98.99459796 85.21924741 79.6792345 85.20888424 C70.33828589 85.20373885 60.99734576 85.19672979 51.65640259 85.18525696 C43.51013183 85.17525627 35.36386723 85.16883021 27.21759051 85.16660792 C22.90850385 85.16530992 18.59943477 85.16228219 14.29035378 85.15496635 C10.22500408 85.14812099 6.15967903 85.14609658 2.09432411 85.14758873 C0.61139288 85.1473162 -0.87153928 85.14536203 -2.35446548 85.14149094 C-21.09473004 84.4739988 -21.09473004 84.4739988 -37.97470093 91.26069641 C-38.96470093 91.92069641 -39.95470093 92.58069641 -40.97470093 93.26069641 C-40.97470093 93.92069641 -40.97470093 94.58069641 -40.97470093 95.26069641 C-41.63470093 95.26069641 -42.29470093 95.26069641 -42.97470093 95.26069641 C-44.50868732 97.26500771 -44.50868732 97.26500771 -45.97470093 99.82319641 C-46.49032593 100.67011047 -47.00595093 101.51702454 -47.53720093 102.38960266 C-50.94275515 109.19145688 -51.35425111 115.74338521 -51.59970093 123.19819641 C-51.78532593 128.17913391 -51.78532593 128.17913391 -51.97470093 133.26069641 C-59.23470093 133.26069641 -66.49470093 133.26069641 -73.97470093 133.26069641 C-74.13970093 135.57069641 -74.30470093 137.88069641 -74.47470093 140.26069641 C-74.61391968 142.20975891 -74.61391968 142.20975891 -74.75595093 144.19819641 C-75.00809654 148.22464665 -75.01071495 152.22712597 -74.97470093 156.26069641 C-75.63590942 156.25545959 -76.29711792 156.25022278 -76.97836304 156.24482727 C-79.95629944 156.22411985 -82.93422074 156.21105629 -85.91220093 156.19819641 C-86.9531189 156.1898175 -87.99403687 156.1814386 -89.0664978 156.17280579 C-90.05585327 156.16958313 -91.04520874 156.16636047 -92.06454468 156.16304016 C-92.98098755 156.15780334 -93.89743042 156.15256653 -94.84164429 156.14717102 C-96.95833116 156.0214843 -96.95833116 156.0214843 -97.97470093 157.26069641 C-98.07369616 158.810252 -98.10549617 160.36423314 -98.10751343 161.91694641 C-98.10880249 162.85667297 -98.11009155 163.79639954 -98.11141968 164.76460266 C-98.10755249 165.7533136 -98.1036853 166.74202454 -98.09970093 167.76069641 C-98.10356812 168.74940735 -98.1074353 169.73811829 -98.11141968 170.75679016 C-98.11013062 171.69651672 -98.10884155 172.63624329 -98.10751343 173.60444641 C-98.1063855 174.47263 -98.10525757 175.3408136 -98.10409546 176.23530579 C-98.19885463 178.25673795 -98.19885463 178.25673795 -96.97470093 179.26069641 C-95.59860211 179.35864952 -94.2175621 179.38867729 -92.83798218 179.39009094 C-91.52156738 179.39481918 -91.52156738 179.39481918 -90.17855835 179.39964294 C-89.2244104 179.39761871 -88.27026245 179.39559448 -87.28720093 179.39350891 C-85.82794189 179.394944 -85.82794189 179.394944 -84.33920288 179.39640808 C-82.27792293 179.39708999 -80.21664084 179.39523494 -78.15536499 179.3910675 C-74.98832404 179.38571942 -71.82142493 179.39101213 -68.65438843 179.39741516 C-66.65699228 179.39675438 -64.65959622 179.39547322 -62.66220093 179.39350891 C-61.70805298 179.39553314 -60.75390503 179.39755737 -59.77084351 179.39964294 C-58.89323364 179.39649078 -58.01562378 179.39333862 -57.11141968 179.39009094 C-56.33500122 179.38929535 -55.55858276 179.38849976 -54.75863647 179.38768005 C-52.95036431 179.45473183 -52.95036431 179.45473183 -51.97470093 178.26069641 C-51.64470093 171.00069641 -51.31470093 163.74069641 -50.97470093 156.26069641 C-28.20470093 155.76569641 -28.20470093 155.76569641 -4.97470093 155.26069641 C-4.64470093 148.00069641 -4.31470093 140.74069641 -3.97470093 133.26069641 C18.79529907 132.76569641 18.79529907 132.76569641 42.02529907 132.26069641 C42.35529907 124.67069641 42.68529907 117.08069641 43.02529907 109.26069641 C46.13459839 109.26593323 49.24389771 109.27117004 52.44741821 109.27656555 C62.85276724 109.29331891 73.25811694 109.30425327 83.66347599 109.31250858 C89.95702403 109.31767297 96.25055797 109.3246496 102.5440979 109.33613586 C142.29556892 109.41770832 142.29556892 109.41770832 182.02529907 108.26069641 C183.58454348 92.66825233 183.02529907 76.93090878 183.02529907 61.26069641 C214.04529907 61.26069641 245.06529907 61.26069641 277.02529907 61.26069641 C277.02529907 71.16069641 277.02529907 81.06069641 277.02529907 91.26069641 C277.42968486 99.7719556 277.42968486 99.7719556 278.02529907 108.26069641 C307.12294679 109.29990435 336.19918971 109.38587934 365.31277466 109.32936096 C371.28139885 109.31892305 377.25002766 109.31452065 383.21865845 109.30952454 C394.8208836 109.29896628 406.42308903 109.28202018 418.02529907 109.26069641 C418.02006226 109.88637512 418.01482544 110.51205383 418.00942993 111.1566925 C417.98868289 113.98301698 417.97564621 116.80932546 417.96279907 119.63569641 C417.95442017 120.62054016 417.94604126 121.60538391 417.93740845 122.62007141 C417.93418579 123.56108704 417.93096313 124.50210266 417.92764282 125.47163391 C417.92240601 126.34094543 417.91716919 127.21025696 417.91177368 128.10591125 C417.88407556 130.31119635 417.88407556 130.31119635 419.02529907 132.26069641 C433.87529907 132.59069641 448.72529907 132.92069641 464.02529907 133.26069641 C464.35529907 139.86069641 464.68529907 146.46069641 465.02529907 153.26069641 C465.35529907 153.92069641 465.68529907 154.58069641 466.02529907 155.26069641 C480.87529907 155.59069641 495.72529907 155.92069641 511.02529907 156.26069641 C511.35529907 163.52069641 511.68529907 170.78069641 512.02529907 178.26069641 C514.35539887 179.42574631 515.69776984 179.38163221 518.29141235 179.3742218 C519.17217438 179.37414627 520.0529364 179.37407074 520.96038818 179.37399292 C521.9125119 179.36883163 522.86463562 179.36367035 523.84561157 179.35835266 C524.81940765 179.35693771 525.79320374 179.35552277 526.79650879 179.35406494 C529.9144698 179.34845614 533.03235967 179.33590215 536.15029907 179.32319641 C538.26097512 179.31818254 540.37165229 179.31361944 542.48233032 179.30952454 C547.66336954 179.29933366 552.84425442 179.27975994 558.02529907 179.26069641 C558.02529907 171.67069641 558.02529907 164.08069641 558.02529907 156.26069641 C547.13529907 155.76569641 547.13529907 155.76569641 536.02529907 155.26069641 C535.58779907 144.82319641 535.58779907 144.82319641 535.45718384 141.52851868 C535.41907593 140.67830139 535.38096802 139.82808411 535.34170532 138.95210266 C535.30504761 138.07755432 535.26838989 137.20300598 535.23062134 136.30195618 C535.24348842 134.26795621 535.24348842 134.26795621 534.02529907 133.26069641 C532.39057025 133.17369299 530.75215852 133.15368579 529.11514282 133.16304016 C527.63110962 133.16787415 527.63110962 133.16787415 526.11709595 133.17280579 C525.07617798 133.18118469 524.03526001 133.1895636 522.96279907 133.19819641 C521.39562134 133.20496399 521.39562134 133.20496399 519.79678345 133.21186829 C517.20623247 133.22369729 514.61579349 133.24017952 512.02529907 133.26069641 C512.04624634 132.67691223 512.0671936 132.09312805 512.08877563 131.49165344 C512.99913647 116.27566947 512.99913647 116.27566947 508.02529907 102.26069641 C507.40654907 101.2126886 507.40654907 101.2126886 506.77529907 100.14350891 C502.04125821 93.01554965 495.05154687 87.66081168 486.68319702 85.67039871 C480.57051662 84.72815816 474.32559825 85.00323339 468.15420532 85.03364563 C466.54713447 85.0342104 464.94006311 85.0338919 463.33299255 85.03276062 C458.98851786 85.03218868 454.64415443 85.04391721 450.29970551 85.05790854 C445.75267608 85.07044243 441.20564389 85.07158849 436.65859985 85.07395935 C428.05630332 85.08016631 419.45405784 85.09656651 410.85178375 85.11665833 C401.0549357 85.13904174 391.25808516 85.1500169 381.46121788 85.1600492 C361.31588315 85.18093344 341.17059433 85.21609416 321.02529907 85.26069641 C320.72312595 84.23592005 320.72312595 84.23592005 320.41484833 83.19044113 C320.14816597 82.29240894 319.88148361 81.39437675 319.60671997 80.46913147 C319.34339622 79.57969723 319.08007248 78.69026299 318.80876923 77.77387619 C317.86985781 74.76207904 316.71447321 71.90756329 315.43154907 69.02632141 C314.95846313 67.9576886 314.4853772 66.88905579 313.99795532 65.78804016 C313.51197876 64.70651672 313.0260022 63.62499329 312.52529907 62.51069641 C312.03932251 61.41370422 311.55334595 60.31671204 311.05264282 59.18647766 C306.3841263 47.30583827 306.3841263 47.30583827 297.02529907 39.26069641 C295.25251488 39.15679132 293.47584094 39.11683306 291.70004272 39.10679626 C290.57005356 39.0981958 289.44006439 39.08959534 288.27583313 39.08073425 C287.03010025 39.0764743 285.78436737 39.07221436 284.50088501 39.06782532 C283.19349869 39.05964783 281.88611237 39.05147034 280.53910828 39.04304504 C276.19598454 39.01681821 271.85285113 39.0015156 267.50967407 38.98725891 C266.01465092 38.98189928 264.51962782 38.97652177 263.0246048 38.97112656 C256.80523387 38.94949581 250.58586555 38.93075955 244.36646652 38.91950417 C235.45350582 38.90326827 226.5409813 38.87010202 217.62818503 38.81310332 C211.36143607 38.77439343 205.0948037 38.7548702 198.82793832 38.7495836 C195.0850935 38.74593117 191.34271383 38.73392273 187.59999847 38.70148087 C183.42216597 38.66578714 179.24526965 38.66977368 175.06729126 38.67720032 C173.21083733 38.65259232 173.21083733 38.65259232 171.31687927 38.62748718 C164.42941295 38.67768857 160.65426315 38.95843469 156.02529907 44.26069641 Z M19.02529907 507.26069641 C57.30529907 507.26069641 95.58529907 507.26069641 135.02529907 507.26069641 C136.47405425 510.15820677 136.19837227 512.71545207 136.24649048 515.95307922 C136.26374931 516.98849602 136.26374931 516.98849602 136.28135681 518.04483032 C136.31829141 520.35111478 136.34787931 522.65742415 136.37686157 524.96382141 C136.40004301 526.59629097 136.42343359 528.22875757 136.44702148 529.86122131 C136.49567044 533.31481914 136.5404887 536.76844256 136.58291626 540.22212219 C136.62580245 543.68349151 136.67411195 547.14470252 136.72842407 550.60591125 C137.02697994 569.66248344 137.09856261 588.69076255 136.61123657 607.74507141 C136.59098042 608.58074898 136.57072426 609.41642654 136.54985428 610.27742767 C136.49114014 612.61290037 136.42481348 614.94799626 136.35488892 617.28315735 C136.32802065 618.32801929 136.32802065 618.32801929 136.30060959 619.39398956 C136.14146702 624.14452846 136.14146702 624.14452846 135.02529907 625.26069641 C133.51978734 625.3564495 132.00978878 625.38257828 130.50123596 625.38095093 C129.03511116 625.38301292 129.03511116 625.38301292 127.53936768 625.38511658 C126.45827728 625.3815213 125.37718689 625.37792603 124.26333618 625.3742218 C122.56599586 625.37444084 122.56599586 625.37444084 120.83436584 625.37466431 C117.07377237 625.3739646 113.31322771 625.36616952 109.55264282 625.35835266 C106.95332364 625.35648869 104.35400411 625.35506469 101.75468445 625.35406494 C95.59941331 625.35062982 89.44416247 625.34273897 83.288899 625.33271545 C76.28296562 625.32155335 69.2770314 625.31604362 62.27109134 625.31102002 C47.85581774 625.30055633 33.44055903 625.28295749 19.02529907 625.26069641 C17.84309133 619.66510377 17.8844326 614.20285464 17.89590454 608.5136261 C17.89415222 607.44306976 17.8923999 606.37251343 17.89059448 605.26951599 C17.88620263 601.74051785 17.88910376 598.21157004 17.89248657 594.68257141 C17.89181297 592.2297108 17.89084247 589.77685025 17.8895874 587.32398987 C17.88811421 582.18960432 17.89025359 577.05523619 17.89492798 571.92085266 C17.90063707 565.32746883 17.89733641 558.73412561 17.89135551 552.14074326 C17.88774995 547.0794392 17.88888826 542.01814485 17.89148331 536.95684052 C17.89215197 534.52466578 17.89132627 532.09249018 17.88900375 529.66031647 C17.88647603 526.27024991 17.89031901 522.88025015 17.89590454 519.4901886 C17.89286819 517.97224197 17.89286819 517.97224197 17.88977051 516.42362976 C17.89259033 515.50399445 17.89541016 514.58435913 17.89831543 513.63685608 C17.89888097 512.43454409 17.89888097 512.43454409 17.89945793 511.20794296 C18.02529907 509.26069641 18.02529907 509.26069641 19.02529907 507.26069641 Z M326.95996189 507.13764858 C327.81446399 507.13857038 328.66896608 507.13949217 329.54936218 507.14044189 C330.52677872 507.13906723 331.50419525 507.13769257 332.51123047 507.13627625 C333.59232086 507.13987152 334.67341125 507.1434668 335.78726196 507.14717102 C337.48460228 507.14695198 337.48460228 507.14695198 339.2162323 507.14672852 C342.97682578 507.14742822 346.73737044 507.1552233 350.49795532 507.16304016 C353.0972745 507.16490414 355.69659404 507.16632814 358.2959137 507.16732788 C364.45118484 507.17076301 370.60643567 507.17865385 376.76169914 507.18867737 C383.76763253 507.19983947 390.77356674 507.2053492 397.7795068 507.21037281 C412.1947804 507.22083649 426.61003911 507.23843533 441.02529907 507.26069641 C441.98653437 510.14440231 442.15093299 511.94761283 442.15228271 514.94261169 C442.15651245 516.38545029 442.15651245 516.38545029 442.16082764 517.85743713 C442.15779129 519.43787811 442.15779129 519.43787811 442.1546936 521.05024719 C442.15732208 522.71635544 442.15732208 522.71635544 442.16000366 524.41612244 C442.16441344 528.09610038 442.16148763 531.77603046 442.15811157 535.45600891 C442.15878477 538.00523386 442.15975492 540.55445874 442.16101074 543.10368347 C442.16248645 548.4485084 442.1604318 553.79331607 442.15567017 559.13813782 C442.15022243 565.32468525 442.15199486 571.51119976 442.15749657 577.6977464 C442.16257287 583.64312905 442.16204659 589.58850144 442.15911484 595.53388596 C442.15844545 598.06736633 442.1592744 600.60084754 442.16159439 603.13432693 C442.16411906 606.66621923 442.1602832 610.19804722 442.1546936 613.72993469 C442.15671783 614.78761047 442.15874207 615.84528625 442.16082764 616.93501282 C442.15800781 617.89126556 442.15518799 618.84751831 442.15228271 619.83274841 C442.15171718 621.08653384 442.15171718 621.08653384 442.15114021 622.36564827 C442.02529907 624.26069641 442.02529907 624.26069641 441.02529907 625.26069641 C439.52211203 625.35861336 438.01433774 625.3870144 436.50796509 625.38768005 C435.04400803 625.39190979 435.04400803 625.39190979 433.55047607 625.39622498 C432.47095673 625.39420074 431.39143738 625.39217651 430.27920532 625.39009094 C429.1492514 625.39184326 428.01929749 625.39359558 426.85510254 625.395401 C423.09931935 625.39982223 419.34358279 625.39688057 415.58779907 625.39350891 C412.99087515 625.39418187 410.39395129 625.39515183 407.79702759 625.39640808 C402.34609319 625.39788542 396.8951765 625.39582393 391.44424438 625.3910675 C385.13390678 625.38562491 378.82360148 625.38738758 372.51326466 625.39289391 C366.45362207 625.39797072 360.39399535 625.3974435 354.33435059 625.39451218 C351.75063065 625.39384264 349.1669099 625.39467226 346.58319092 625.39699173 C342.97923564 625.39951666 339.37534338 625.39567991 335.77139282 625.39009094 C334.69187347 625.39211517 333.61235413 625.3941394 332.50012207 625.39622498 C331.5241507 625.39340515 330.54817932 625.39058533 329.54263306 625.38768005 C328.68942978 625.38730303 327.8362265 625.386926 326.95716858 625.38653755 C325.02529907 625.26069641 325.02529907 625.26069641 324.02529907 624.26069641 C323.92738212 622.75750937 323.89898109 621.24973508 323.89831543 619.74336243 C323.89408569 618.27940536 323.89408569 618.27940536 323.88977051 616.78587341 C323.89179474 615.70635406 323.89381897 614.62683472 323.89590454 613.51460266 C323.89415222 612.38464874 323.8923999 611.25469482 323.89059448 610.09049988 C323.88617326 606.33471669 323.88911491 602.57898013 323.89248657 598.82319641 C323.89181361 596.22627249 323.89084365 593.62934863 323.8895874 591.03242493 C323.88811006 585.58149053 323.89017156 580.13057383 323.89492798 574.67964172 C323.90037057 568.36930412 323.8986079 562.05899882 323.89310157 555.74866199 C323.88802476 549.68901941 323.88855198 543.62939269 323.89148331 537.56974792 C323.89215285 534.98602799 323.89132322 532.40230724 323.88900375 529.81858826 C323.88647883 526.21463298 323.89031558 522.61074071 323.89590454 519.00679016 C323.89388031 517.92727081 323.89185608 516.84775146 323.88977051 515.73551941 C323.89259033 514.75954803 323.89541016 513.78357666 323.89831543 512.7780304 C323.89869246 511.92482712 323.89906948 511.07162384 323.89945793 510.19256592 C324.07045657 507.56745423 324.33439606 507.30463901 326.95996189 507.13764858 Z M19.02529907 671.26069641 C34.13254598 671.23736672 49.2397915 671.21971689 64.34705257 671.20888424 C71.36114541 671.20372143 78.37522708 671.19667903 85.38931274 671.18525696 C92.15197975 671.17424953 98.91463272 671.16842022 105.67730904 671.16581917 C108.26382188 671.16396438 110.85033405 671.16034274 113.43684196 671.15496635 C117.04568762 671.1477599 120.65448454 671.1467053 124.26333618 671.14717102 C125.34442657 671.14357574 126.42551697 671.13998047 127.53936768 671.13627625 C129.00549248 671.13833824 129.00549248 671.13833824 130.50123596 671.14044189 C131.35573806 671.1395201 132.21024015 671.13859831 133.09063625 671.13764858 C135.02529907 671.26069641 135.02529907 671.26069641 136.02529907 672.26069641 C136.18856388 674.8785632 136.28613179 677.47171879 136.34170532 680.09272766 C136.36257706 680.9275769 136.38344879 681.76242615 136.404953 682.62257385 C136.47234003 685.43934215 136.53081298 688.25619937 136.58779907 691.07319641 C136.60864563 692.04344757 136.62949219 693.01369873 136.65097046 694.01335144 C137.03878161 712.44896618 137.13325688 730.88424737 137.15029907 749.32319641 C137.15288727 750.62737518 137.15547546 751.93155396 137.15814209 753.2752533 C137.16403245 757.03214713 137.16240374 760.78895805 137.15811157 764.54585266 C137.16009048 765.65366089 137.1620694 766.76146912 137.16410828 767.90284729 C137.16100143 768.95945557 137.15789459 770.01606384 137.1546936 771.10469055 C137.15389801 772.00820755 137.15310242 772.91172455 137.15228271 773.84262085 C136.96097493 778.99213817 136.45323822 784.12542666 136.02529907 789.26069641 C97.41529907 789.26069641 58.80529907 789.26069641 19.02529907 789.26069641 C18.30858162 785.67710913 17.89997829 783.04374607 17.89831543 779.50358582 C17.89549561 778.57549103 17.89267578 777.64739624 17.88977051 776.69117737 C17.89179474 775.68528564 17.89381897 774.67939392 17.89590454 773.64302063 C17.89415222 772.57421661 17.8923999 771.5054126 17.89059448 770.40422058 C17.88619637 766.8745918 17.88910639 763.34501319 17.89248657 759.81538391 C17.89181305 757.36348969 17.89084261 754.91159553 17.8895874 752.45970154 C17.88811328 747.3235358 17.89025622 742.18738747 17.89492798 737.05122375 C17.9006311 730.45903073 17.89734076 723.86687836 17.89135551 717.27468681 C17.88774735 712.21334017 17.88888957 707.15200321 17.89148331 702.09065628 C17.89215155 699.65930807 17.8913277 697.22795898 17.88900375 694.79661179 C17.88647243 691.40424507 17.89032442 688.01194488 17.89590454 684.61958313 C17.89388031 683.60964294 17.89185608 682.59970276 17.88977051 681.55915833 C17.89259033 680.63670319 17.89541016 679.71424805 17.89831543 678.76383972 C17.89869246 677.96192137 17.89906948 677.16000301 17.89945793 676.3337841 C18.02529907 674.26069641 18.02529907 674.26069641 19.02529907 671.26069641 Z M326.95996189 671.13764858 C327.81446399 671.13857038 328.66896608 671.13949217 329.54936218 671.14044189 C330.52677872 671.13906723 331.50419525 671.13769257 332.51123047 671.13627625 C333.59232086 671.13987152 334.67341125 671.1434668 335.78726196 671.14717102 C337.48460228 671.14695198 337.48460228 671.14695198 339.2162323 671.14672852 C342.97682578 671.14742822 346.73737044 671.1552233 350.49795532 671.16304016 C353.0972745 671.16490414 355.69659404 671.16632814 358.2959137 671.16732788 C364.45118484 671.17076301 370.60643567 671.17865385 376.76169914 671.18867737 C383.76763253 671.19983947 390.77356674 671.2053492 397.7795068 671.21037281 C412.1947804 671.22083649 426.61003911 671.23843533 441.02529907 671.26069641 C441.89035704 674.25326489 442.15086677 676.91411475 442.15228271 680.02490234 C442.15651245 681.4571817 442.15651245 681.4571817 442.16082764 682.918396 C442.15779129 684.47941795 442.15779129 684.47941795 442.1546936 686.07197571 C442.15732208 687.72367264 442.15732208 687.72367264 442.16000366 689.40873718 C442.16440757 693.0508125 442.1614899 696.69283934 442.15811157 700.33491516 C442.15878489 702.86029062 442.15975514 705.38566602 442.16101074 707.91104126 C442.16248561 713.20281145 442.16043449 718.4945642 442.15567017 723.78633118 C442.15021978 729.91098353 442.15199723 736.03560263 442.15749657 742.16025418 C442.1625726 748.04850778 442.16204682 753.93675101 442.15911484 759.82500648 C442.15844553 762.33336708 442.15927414 764.84172851 442.16159439 767.35008812 C442.16411893 770.84594893 442.16028353 774.34174477 442.1546936 777.83760071 C442.15671783 778.88435471 442.15874207 779.9311087 442.16082764 781.00958252 C442.15800781 781.95597595 442.15518799 782.90236938 442.15228271 783.87744141 C442.15171718 785.11821709 442.15171718 785.11821709 442.15114021 786.38405895 C442.02529907 788.26069641 442.02529907 788.26069641 441.02529907 789.26069641 C439.50711387 789.35648234 437.98447511 789.38257788 436.46327209 789.38095093 C434.98452606 789.38301292 434.98452606 789.38301292 433.47590637 789.38511658 C432.38546524 789.3815213 431.29502411 789.37792603 430.17153931 789.3742218 C428.45956863 789.37444084 428.45956863 789.37444084 426.7130127 789.37466431 C422.91995376 789.37396459 419.12694323 789.36616948 415.33389282 789.35835266 C412.71215339 789.35648869 410.09041361 789.35506469 407.46867371 789.35406494 C401.26027952 789.35095192 395.05190286 789.34273893 388.84351641 789.33271545 C381.77712466 789.3215534 374.71073209 789.31604363 367.64433372 789.31102002 C353.10464645 789.30055629 338.564973 789.28295742 324.02529907 789.26069641 C324.00196946 774.02306577 323.98431959 758.78543595 323.9734869 743.54779148 C323.96832408 736.47316454 323.96128164 729.39854867 323.94985962 722.32392883 C323.93885226 715.50290763 323.93302289 708.68189797 323.93042183 701.86086845 C323.92856703 699.25202693 323.92494537 696.64318608 323.91956902 694.03434944 C323.91236264 690.39437089 323.91130796 686.75444066 323.91177368 683.11445618 C323.90817841 682.02401505 323.90458313 680.93357391 323.90087891 679.81008911 C323.90225357 678.82425842 323.90362823 677.83842773 323.90504456 676.82272339 C323.90412276 675.96084695 323.90320097 675.09897051 323.90225124 674.2109766 C324.06865116 671.57357558 324.32225475 671.30541122 326.95996189 671.13764858 Z " fill="#FFCC00" transform="translate(319.9747009277344,71.73930358886719)"/>
</svg>
